<svg width="22" height="39" viewBox="0 0 22 39" fill="none" xmlns="http://www.w3.org/2000/svg">
<path d="M21.307 3.23389C21.4949 3.05091 21.6419 2.83565 21.7394 2.60042C21.8369 2.36519 21.8831 2.11459 21.8754 1.86293C21.8677 1.61127 21.8061 1.36347 21.6943 1.13369C21.5825 0.903912 21.4225 0.696645 21.2236 0.523727C21.0247 0.350809 20.7908 0.215626 20.5351 0.125897C20.2794 0.0361669 20.007 -0.00635249 19.7335 0.00076667C19.4599 0.00788583 19.1906 0.0645038 18.9408 0.167388C18.691 0.270272 18.4657 0.417408 18.2778 0.600394L0.569464 17.8504C0.203763 18.2063 0 18.6774 0 19.1671C0 19.6569 0.203763 20.128 0.569464 20.4839L18.2778 37.7358C18.4645 37.9228 18.6897 38.0738 18.9404 38.18C19.1911 38.2863 19.4622 38.3456 19.7381 38.3546C20.0139 38.3636 20.2889 38.3221 20.5471 38.2325C20.8054 38.1429 21.0417 38.007 21.2424 37.8327C21.443 37.6584 21.6041 37.4491 21.7161 37.217C21.8281 36.985 21.8889 36.7347 21.8949 36.4809C21.9009 36.227 21.852 35.9746 21.7511 35.7383C21.6502 35.5019 21.4992 35.2864 21.307 35.1042L4.94863 19.1671L21.307 3.23389Z" fill="black"/>
</svg>
