<svg width="22" height="42" viewBox="0 0 22 42" fill="none" xmlns="http://www.w3.org/2000/svg">
<path d="M0.587566 3.5151C0.399611 3.3162 0.252674 3.08223 0.155142 2.82655C0.0576096 2.57086 0.0113926 2.29847 0.0191307 2.02493C0.0268688 1.75138 0.0884094 1.48204 0.200241 1.23228C0.312071 0.982513 0.472002 0.757223 0.6709 0.569269C0.869797 0.381315 1.10377 0.234376 1.35946 0.136844C1.61514 0.0393119 1.88753 -0.00690488 2.16108 0.000833337C2.43462 0.00857156 2.70396 0.0701128 2.95373 0.181944C3.20349 0.293774 3.42878 0.453704 3.61673 0.652602L21.3251 19.4026C21.6908 19.7894 21.8945 20.3015 21.8945 20.8339C21.8945 21.3662 21.6908 21.8783 21.3251 22.2651L3.61673 41.0172C3.43002 41.2204 3.20478 41.3846 2.9541 41.5C2.70342 41.6155 2.43229 41.68 2.15647 41.6898C1.88065 41.6996 1.60563 41.6545 1.34739 41.5571C1.08914 41.4597 0.852823 41.312 0.652157 41.1225C0.451488 40.933 0.29047 40.7056 0.178457 40.4533C0.0664444 40.2011 0.00566864 39.9291 -0.000339508 39.6531C-0.00634956 39.3772 0.0425262 39.1028 0.143452 38.846C0.244375 38.5891 0.395338 38.3548 0.587566 38.1568L16.9459 20.8339L0.587566 3.5151Z" fill="black"/>
</svg>
