<svg width="210" height="52" viewBox="0 0 210 52" fill="none" xmlns="http://www.w3.org/2000/svg">
<g clip-path="url(#clip0_386_665)">
<path d="M74.9527 31.5982H70.0804L69.1186 35.487C68.9579 36.1559 68.6692 36.3474 67.9323 36.3474H64.6306C64.0213 36.3474 63.7969 36.0604 63.9257 35.4549L69.3112 16.1066C69.4711 15.4374 69.6637 15.1824 70.657 15.1824H74.4395C75.2414 15.1824 75.562 15.4691 75.7219 16.1066L81.2358 35.4549C81.3961 36.0604 81.2358 36.3474 80.6908 36.3474H77.0362C76.2351 36.3474 76.0106 36.0921 75.8503 35.3594L74.9527 31.5982ZM72.5163 20.442L71.9075 23.5334C71.5546 25.2229 71.2663 26.6253 71.0099 27.6772H73.9909L73.1898 23.5656C72.9649 22.3864 72.7731 21.3662 72.6447 20.442H72.5163Z" fill="#1C2A37"/>
<path d="M87.3582 20.6648L87.422 20.7286C88.2877 20.442 89.0892 20.3143 89.826 20.3143C92.3585 20.3143 93.9934 21.0157 94.8591 22.5454C95.7244 24.0437 95.9808 25.7015 95.9808 28.2831C95.9808 30.9606 95.6606 32.7778 94.6665 34.3392C93.737 35.8693 91.9418 36.6341 89.249 36.6341C86.717 36.6341 84.7934 36.3153 83.4468 35.6782C82.7737 35.3594 82.4531 34.8174 82.4531 34.0843V14.5448C82.4531 14.0667 82.7418 13.8438 83.3511 13.8438H86.4925C87.0695 13.8438 87.3582 14.0667 87.3582 14.5448V20.6648ZM89.1211 24.5219C88.576 24.5219 87.9667 24.6492 87.3582 24.8724V32.1719C87.7107 32.2675 88.1912 32.3309 88.8324 32.3309C90.2108 32.3309 90.98 31.5027 90.98 28.4742C90.98 25.4144 90.4353 24.5219 89.1211 24.5219Z" fill="#1C2A37"/>
<path d="M97.584 31.9166C97.584 28.3786 99.4753 26.6253 103.29 26.6253H106.143V26.1793C106.143 24.8086 105.662 24.2987 103.963 24.2987C103.546 24.2987 102.104 24.4263 99.6994 24.6492C99.3469 24.6813 99.1228 24.4581 99.0263 24.0437L98.738 22.4819C98.6419 22.0355 98.738 21.7167 99.0263 21.4934C99.5395 21.1429 100.373 20.8559 101.526 20.6327C102.681 20.4098 103.739 20.3143 104.668 20.3143C107.361 20.3143 109.028 20.8242 109.893 21.9716C110.759 23.1195 110.984 24.3621 110.984 26.4342V31.3428C110.984 32.6497 111.015 32.8412 111.753 32.8729C112.49 32.9685 112.618 33.064 112.618 33.4149V35.2C112.618 35.6143 112.458 35.9331 112.17 36.0921C111.656 36.3792 110.919 36.5064 109.925 36.5064C108.131 36.5064 107.201 36.0604 106.688 34.9129C106.656 34.9129 106.624 34.9129 106.592 34.8812C105.278 36.0287 103.675 36.6024 101.847 36.6024C98.3213 36.6024 97.584 34.3392 97.584 31.9166ZM106.079 29.7814H103.963C103.033 29.7814 102.552 30.419 102.552 31.6616C102.552 32.6497 102.809 32.9368 103.482 32.9368C104.284 32.9368 105.149 32.5863 106.079 31.8849V29.7814Z" fill="#1C2A37"/>
<path d="M114.862 34.0842C113.997 32.4265 113.74 30.8651 113.74 28.4425C113.74 26.2748 114.029 24.6492 114.895 22.9914C115.792 21.3023 117.683 20.3143 120.376 20.3143C121.113 20.3143 122.011 20.4098 123.037 20.6327C124.095 20.8559 124.832 21.0795 125.28 21.3662C125.633 21.5573 125.794 21.8761 125.698 22.2904L125.345 24.2666C125.249 24.7769 125.056 24.9358 124.639 24.9041C122.524 24.7126 121.338 24.6175 121.049 24.6175C119.478 24.6175 118.709 25.8605 118.709 28.3465C118.709 31.3746 119.286 32.363 120.953 32.363C122.139 32.363 123.261 32.2675 124.319 32.1081C124.864 31.9487 125.281 32.0443 125.409 32.6497L125.729 34.4347C125.857 35.0727 125.826 35.2 125.345 35.5505C124.896 35.8693 124.191 36.1242 123.197 36.3153C122.236 36.5064 121.306 36.6024 120.376 36.6024C117.587 36.6024 115.76 35.7416 114.862 34.0842Z" fill="#1C2A37"/>
<path d="M135.699 34.945C135.667 34.945 135.571 34.9129 135.539 34.9129C134.353 36.0287 133.007 36.6024 131.532 36.6024C129.705 36.6024 128.487 36.0921 127.942 35.0727C127.397 34.0204 127.236 33.0962 127.236 31.5661V21.3023C127.236 20.8242 127.493 20.6009 128.038 20.6009H131.308C131.853 20.6009 132.141 20.8242 132.141 21.3023C132.141 22.2266 132.141 23.629 132.109 25.51V29.7172C132.109 31.5982 132.526 32.0443 133.391 32.0443C133.968 32.0443 134.738 31.7889 135.699 31.2794V21.2702C135.699 20.8242 135.988 20.6009 136.565 20.6009H139.77C140.411 20.6009 140.572 20.8242 140.572 21.3023V35.6782C140.572 36.1559 140.444 36.3474 139.803 36.3474H136.437C135.667 36.3474 135.699 35.9648 135.699 35.6782V34.945Z" fill="#1C2A37"/>
<path d="M152.817 35.3911C151.598 36.2202 150.06 36.6341 148.2 36.6341C146.437 36.6341 144.899 36.3792 143.649 35.9014C142.623 35.4871 142.398 35.1683 142.559 34.3709L142.847 32.8412C142.975 32.2037 143.2 32.1081 144.097 32.2675C145.476 32.5542 146.79 32.6818 148.04 32.6818C149.13 32.6818 149.675 32.2992 149.675 31.5344C149.675 30.6419 149.387 30.419 148.361 30.291C146.469 30.0043 145.54 29.7493 144.354 29.0796C143.168 28.3465 142.623 27.1995 142.623 25.4144C142.623 22.131 145.059 20.3143 148.649 20.3143C150.412 20.3143 151.887 20.5375 153.073 21.0157C154.003 21.3983 154.323 21.685 154.227 22.3226L153.874 23.9799C153.778 24.4264 153.65 24.7451 152.721 24.5536C150.989 24.3304 149.675 24.2031 148.777 24.2031C147.752 24.171 147.527 24.4898 147.527 25.2546C147.527 25.9878 148.104 26.211 149.002 26.3066C150.701 26.5619 151.695 26.8168 152.88 27.55C154.067 28.2193 154.676 29.5261 154.676 31.3429C154.676 33.1917 154.067 34.5307 152.817 35.3911Z" fill="#1C2A37"/>
<path d="M171.663 24.2031L177.882 35.9014C178.01 36.1242 177.914 36.3474 177.625 36.3474H175.67C175.317 36.3474 175.093 36.1881 174.933 35.9014L170.06 26.4342L167.175 30.4825V35.8054C167.175 36.1559 167.015 36.3474 166.663 36.3474H165.284C164.899 36.3474 164.707 36.1559 164.707 35.8054V15.7879C164.707 15.4056 164.899 15.2141 165.284 15.2141H166.663C167.015 15.2141 167.175 15.4056 167.175 15.7879V26.5298L167.239 26.5619C167.784 25.7011 168.874 24.0755 170.509 21.7488L174.837 15.565C174.997 15.3418 175.221 15.2141 175.574 15.2141H177.529C177.818 15.2141 177.914 15.4374 177.753 15.6606L171.663 24.2031Z" fill="#EF2D2C"/>
<path d="M181.376 15.3101C181.921 15.3101 182.273 15.4374 182.466 15.6606C182.85 16.0749 182.85 17.2541 182.466 17.7644C182.273 17.9872 181.921 18.1149 181.376 18.1149C180.318 18.1149 180.029 17.5729 180.029 16.6808C180.029 15.7561 180.478 15.3101 181.376 15.3101ZM182.594 35.8054C182.594 36.1559 182.434 36.3474 182.081 36.3474H180.767C180.382 36.3474 180.19 36.1559 180.19 35.8054V21.3662C180.19 21.0153 180.382 20.8242 180.767 20.8242H182.081C182.434 20.8242 182.594 21.0153 182.594 21.3662V35.8054Z" fill="#4DBD38"/>
<path d="M194.871 21.143V14.481C194.871 14.0667 195.064 13.8752 195.449 13.8752H196.73C197.147 13.8752 197.275 14.0028 197.275 14.481V35.8054C197.275 36.1559 197.083 36.3475 196.73 36.3475H195.416C195.064 36.3475 194.871 36.1559 194.871 35.8054V35.0406L194.775 34.9768C193.172 36.0287 191.665 36.5703 190.223 36.5703C186.729 36.5703 185.543 34.1481 185.543 28.8251C185.543 23.2151 186.922 20.5375 191.121 20.5375C192.371 20.5375 193.589 20.7607 194.775 21.2385L194.871 21.143ZM190.544 34.3075C191.153 34.3075 191.89 34.1481 192.756 33.861C193.621 33.5744 194.327 33.2556 194.839 32.9368V23.2789C193.589 22.8959 192.339 22.7048 191.121 22.7048C188.845 22.7048 188.044 24.3304 188.044 28.8251C188.044 33.6061 188.973 34.3075 190.544 34.3075Z" fill="#871A8F"/>
<path d="M204.647 36.6024C202.691 36.6024 201.249 36.3474 200.255 35.8693C199.934 35.7099 199.806 35.4866 199.902 35.1679L200.03 34.4986C200.127 34.0842 200.287 34.0525 200.8 34.0842C202.723 34.3075 204.038 34.403 204.743 34.403C206.634 34.403 207.468 33.702 207.468 32.1398C207.468 31.2156 207.308 30.6097 206.955 30.2592C206.602 29.9087 205.929 29.6534 204.903 29.494C203.461 29.2394 202.531 28.9524 201.505 28.3148C200.479 27.6772 199.902 26.5619 199.902 25.0635C199.902 22.131 201.794 20.5054 204.967 20.5054C206.73 20.5054 208.141 20.7607 209.23 21.2385C209.487 21.3662 209.584 21.5573 209.551 21.8444L209.423 22.673C209.391 22.9597 209.102 23.0553 208.59 22.9918C206.891 22.8324 205.672 22.7369 204.936 22.7369C203.012 22.7369 202.403 23.3423 202.403 25.0001C202.403 26.498 202.98 26.7847 205.16 27.1673C206.602 27.4544 207.403 27.7093 208.429 28.3786C209.487 29.0479 210 30.2275 210 31.8849C210 35.1679 207.724 36.6024 204.647 36.6024Z" fill="#FBBC09"/>
<path d="M10.7676 50.3206V1.07078H12.9209V50.3206H10.7676Z" fill="#BECBD1"/>
<path d="M23.6875 50.3206V1.07078H25.8412V50.3206H23.6875Z" fill="#BECBD1"/>
<path d="M36.6094 50.3206V1.07078H38.7631V50.3206H36.6094Z" fill="#BECBD1"/>
<path d="M49.5297 7.49464V43.8967C49.5297 48.0357 46.1554 51.3909 41.9929 51.3909H7.53724C3.37474 51.3909 0 48.0357 0 43.8967V7.49464C0 3.35566 3.37474 -3.8147e-06 7.53724 -3.8147e-06H41.9929C46.1554 -3.8147e-06 49.5297 3.35566 49.5297 7.49464ZM2.15373 43.8967C2.15373 46.8533 4.56385 49.2498 7.53724 49.2498H41.9929C44.9659 49.2498 47.3764 46.8533 47.3764 43.8967V7.49464C47.3764 4.53805 44.9659 2.14155 41.9929 2.14155H7.53724C4.56385 2.14155 2.15373 4.53805 2.15373 7.49464V43.8967Z" fill="#BECBD1"/>
<path d="M13.5639 19.121H10.1254L5.60352 22.7847L10.1254 26.4483H13.5639L18.0858 22.7847L13.5639 19.121Z" fill="#871A8F"/>
<path d="M26.3842 29.2085H22.9457L18.4238 32.8722L22.9457 36.5358H26.3842L30.9061 32.8722L26.3842 29.2085Z" fill="#EF2D2C"/>
<path d="M39.4057 39.0451H35.9672L31.4453 42.7087L35.9672 46.3723H39.4057L43.9276 42.7087L39.4057 39.0451Z" fill="#FBBC09"/>
<path d="M39.4057 29.2085H35.9672L31.4453 32.8722L35.9672 36.5358H39.4057L43.9276 32.8722L39.4057 29.2085Z" fill="#4DBD38"/>
<path d="M39.4057 19.121H35.9672L31.4453 22.7847L35.9672 26.4483H39.4057L43.9276 22.7847L39.4057 19.121Z" fill="#EF2D2C"/>
<path d="M26.3842 19.121H22.9457L18.4238 22.7847L22.9457 26.4483H26.3842L30.9061 22.7847L26.3842 19.121Z" fill="#FBBC09"/>
<path d="M26.3842 8.68227H22.9457L18.4238 12.3459L22.9457 16.0095H26.3842L30.9061 12.3459L26.3842 8.68227Z" fill="#4DBD38"/>
<path d="M48.9913 18.6862H1.39648V16.6788H48.9913V18.6862Z" fill="#BECBD1"/>
<path d="M168.028 41.6953C168.876 41.6953 169.601 41.9559 170.171 42.4621C170.758 42.9684 171.051 43.7044 171.051 44.6856C171.051 45.9126 170.542 47.0472 169.431 47.4916L171.236 51.5551C171.313 51.7547 171.251 51.8619 171.019 51.8619H169.74C169.493 51.8619 169.339 51.7695 169.262 51.6013L167.72 47.7831H166.578V51.5704C166.578 51.7695 166.47 51.8619 166.255 51.8619H165.129C164.913 51.8619 164.805 51.7695 164.805 51.586V41.9868C164.805 41.7872 164.913 41.6953 165.129 41.6953H168.028ZM166.578 43.2286V46.2956H167.689C168.629 46.2956 169.216 45.9583 169.216 44.7466C169.216 43.7349 168.722 43.2286 167.72 43.2286H166.578Z" fill="#1C2A37"/>
<path d="M177.85 51.2175C177.834 51.2175 177.818 51.2175 177.803 51.2026L177.772 51.187C177.109 51.7238 176.431 52 175.706 52C174.827 52 174.272 51.7547 174.01 51.2641C173.763 50.7578 173.701 50.3438 173.701 49.5621V44.6394C173.701 44.4403 173.809 44.348 174.025 44.348H175.089C175.305 44.348 175.413 44.4403 175.413 44.6394C175.413 44.839 175.413 45.5749 175.397 46.8477V49.0253C175.397 50.1447 175.645 50.4205 176.246 50.4205C176.616 50.4205 177.156 50.2362 177.85 49.8532V44.6394C177.85 44.4403 177.957 44.348 178.189 44.348H179.237C179.438 44.348 179.546 44.4403 179.546 44.6394V51.5704C179.546 51.7695 179.438 51.8619 179.237 51.8619H178.158C177.911 51.8619 177.85 51.7695 177.85 51.5704V51.2175Z" fill="#1C2A37"/>
<path d="M186.669 51.4174C186.13 51.8009 185.466 51.9847 184.649 51.9847C183.724 51.9847 183.014 51.8619 182.505 51.6318C182.182 51.509 182.12 51.3713 182.166 51.126L182.274 50.6197C182.32 50.3591 182.413 50.3286 182.736 50.3744C183.523 50.4972 184.156 50.5586 184.633 50.5586C185.389 50.5586 185.713 50.2977 185.713 49.6999C185.713 49.0406 185.497 48.8567 184.757 48.7339C183.97 48.5958 183.538 48.4733 182.983 48.1666C182.443 47.8442 182.182 47.2921 182.182 46.5104C182.182 45.0229 183.215 44.1946 184.834 44.1946C185.682 44.1946 186.376 44.3175 186.916 44.5475C187.178 44.6551 187.286 44.8085 187.255 44.9924L187.147 45.5597C187.101 45.7897 186.993 45.8202 186.669 45.7745C185.79 45.6821 185.189 45.6364 184.849 45.6364C184.125 45.6207 183.909 45.8664 183.909 46.4642C183.909 47.001 184.156 47.1235 184.957 47.2616C185.697 47.3845 186.16 47.5226 186.669 47.8442C187.209 48.1666 187.471 48.7491 187.471 49.5927C187.471 50.4358 187.209 51.034 186.669 51.4174Z" fill="#1C2A37"/>
<path d="M194.378 51.4174C193.838 51.8009 193.175 51.9847 192.358 51.9847C191.432 51.9847 190.723 51.8619 190.214 51.6318C189.89 51.509 189.829 51.3713 189.875 51.126L189.983 50.6197C190.029 50.3591 190.122 50.3286 190.445 50.3744C191.232 50.4972 191.864 50.5586 192.342 50.5586C193.098 50.5586 193.422 50.2977 193.422 49.6999C193.422 49.0406 193.206 48.8567 192.466 48.7339C191.679 48.5958 191.247 48.4733 190.692 48.1666C190.152 47.8442 189.89 47.2921 189.89 46.5104C189.89 45.0229 190.923 44.1946 192.543 44.1946C193.391 44.1946 194.085 44.3175 194.624 44.5475C194.887 44.6551 194.995 44.8085 194.964 44.9924L194.856 45.5597C194.81 45.7897 194.702 45.8202 194.378 45.7745C193.499 45.6821 192.898 45.6364 192.558 45.6364C191.833 45.6207 191.618 45.8664 191.618 46.4642C191.618 47.001 191.864 47.1235 192.666 47.2616C193.406 47.3845 193.869 47.5226 194.378 47.8442C194.918 48.1666 195.18 48.7491 195.18 49.5927C195.18 50.4358 194.918 51.034 194.378 51.4174Z" fill="#1C2A37"/>
<path d="M198.756 43.2595C198.031 43.2595 197.861 42.9066 197.861 42.3546C197.861 41.772 198.154 41.4809 198.756 41.4809C199.481 41.4809 199.681 41.7872 199.681 42.3546C199.681 42.9066 199.481 43.2595 198.756 43.2595ZM199.604 51.5704C199.604 51.7695 199.496 51.8619 199.28 51.8619H198.262C198.031 51.8619 197.908 51.7695 197.908 51.5704V44.6394C197.908 44.4403 198.031 44.348 198.262 44.348H199.28C199.496 44.348 199.604 44.4403 199.604 44.6394V51.5704Z" fill="#1C2A37"/>
<path d="M202.41 49.8071C202.41 48.0284 203.289 47.2463 205.093 47.2463H206.651V46.9091C206.651 46.0346 206.296 45.6516 205.325 45.6516C204.893 45.6516 204.245 45.6978 203.382 45.805C203.212 45.8355 203.104 45.7588 203.073 45.5902L202.95 45.0229C202.919 44.839 202.981 44.7009 203.15 44.6242C203.721 44.3327 204.538 44.1946 205.587 44.1946C206.759 44.1946 207.499 44.4403 207.869 44.9924C208.239 45.5444 208.347 46.1117 208.347 47.0777V49.9452C208.347 50.5587 208.347 50.6197 208.764 50.6349C208.98 50.6506 209.087 50.7273 209.087 50.8654V51.4632C209.087 51.6471 208.995 51.7695 208.826 51.8161C208.64 51.8924 208.378 51.9229 208.054 51.9229C207.299 51.9229 206.928 51.7085 206.789 51.1412L206.774 51.126H206.743C206.019 51.6933 205.232 51.9847 204.384 51.9847C202.95 51.9847 202.41 51.2026 202.41 49.8071ZM206.636 48.4733H205.201C204.507 48.4733 204.152 48.8872 204.152 49.7308C204.152 50.3591 204.338 50.5892 204.878 50.5892C205.386 50.5892 205.972 50.3591 206.636 49.899V48.4733Z" fill="#1C2A37"/>
</g>
<defs>
<clipPath id="clip0_386_665">
<rect width="210" height="52" fill="white"/>
</clipPath>
</defs>
</svg>
