<svg width="28" height="25" viewBox="0 0 28 25" fill="none" xmlns="http://www.w3.org/2000/svg">
<path fill-rule="evenodd" clip-rule="evenodd" d="M0.87868 1.07609C1.44129 0.387082 2.20435 0 3 0H25C25.7957 0 26.5587 0.387082 27.1213 1.07609C27.6839 1.7651 28 2.6996 28 3.67401V20.8194C28 21.7938 27.6839 22.7283 27.1213 23.4173C26.5587 24.1063 25.7957 24.4934 25 24.4934H3C2.20435 24.4934 1.44129 24.1063 0.87868 23.4173C0.31607 22.7283 0 21.7938 0 20.8194V3.67401C0 2.6996 0.31607 1.76511 0.87868 1.07609ZM3 2.44934C2.73478 2.44934 2.48043 2.57837 2.29289 2.80804C2.2169 2.90111 2.1544 3.00762 2.10693 3.123L13.431 12.7239C13.5982 12.8656 13.7967 12.9415 14 12.9415C14.2033 12.9415 14.4018 12.8656 14.569 12.7239L25.8931 3.123C25.8456 3.00762 25.7831 2.90111 25.7071 2.80804C25.5196 2.57837 25.2652 2.44934 25 2.44934H3ZM26 6.01136L15.7072 14.7379C15.2056 15.163 14.61 15.3908 14 15.3908C13.39 15.3908 12.7946 15.1631 12.293 14.7381L2 6.01136V20.8194C2 21.1442 2.10536 21.4557 2.29289 21.6854C2.48043 21.9151 2.73478 22.0441 3 22.0441H25C25.2652 22.0441 25.5196 21.9151 25.7071 21.6854C25.8946 21.4557 26 21.1442 26 20.8194V6.01136Z" fill="black"/>
</svg>
