<svg width="28" height="25" viewBox="0 0 28 25" fill="none" xmlns="http://www.w3.org/2000/svg">
<path fill-rule="evenodd" clip-rule="evenodd" d="M2.853 9.65499C2.24286 10.7732 2 11.6785 2 12.2467C2 12.8149 2.24286 13.7203 2.853 14.8384C3.44626 15.9257 4.32429 17.0978 5.43078 18.1778C7.64916 20.3431 10.6859 22.0441 14 22.0441C17.3141 22.0441 20.3508 20.3431 22.5692 18.1778C23.6757 17.0978 24.5537 15.9257 25.147 14.8384C25.7571 13.7203 26 12.8149 26 12.2467C26 11.6785 25.7571 10.7732 25.147 9.65499C24.5537 8.56775 23.6757 7.39567 22.5692 6.31563C20.3508 4.15028 17.3141 2.44934 14 2.44934C10.6859 2.44934 7.64916 4.15028 5.43078 6.31563C4.32429 7.39567 3.44626 8.56775 2.853 9.65499ZM4.18423 4.40024C6.67084 1.97308 10.1341 0 14 0C17.8659 0 21.3292 1.97308 23.8158 4.40024C25.0618 5.61647 26.0875 6.97026 26.8099 8.2941C27.5154 9.587 28 10.9779 28 12.2467C28 13.5155 27.5154 14.9064 26.8099 16.1993C26.0875 17.5232 25.0618 18.877 23.8158 20.0932C21.3292 22.5203 17.8659 24.4934 14 24.4934C10.1341 24.4934 6.67084 22.5203 4.18423 20.0932C2.93821 18.877 1.91249 17.5232 1.19012 16.1993C0.484637 14.9064 0 13.5155 0 12.2467C0 10.9779 0.484637 9.587 1.19012 8.2941C1.91249 6.97026 2.93821 5.61647 4.18423 4.40024Z" fill="black"/>
<path fill-rule="evenodd" clip-rule="evenodd" d="M14 7.34802C12.9391 7.34802 11.9217 7.86413 11.1716 8.78282C10.4214 9.7015 10 10.9475 10 12.2467C10 13.5459 10.4214 14.7919 11.1716 15.7106C11.9217 16.6293 12.9391 17.1454 14 17.1454C15.0609 17.1454 16.0783 16.6293 16.8284 15.7106C17.5786 14.7919 18 13.5459 18 12.2467C18 10.9475 17.5786 9.7015 16.8284 8.78282C16.0783 7.86413 15.0609 7.34802 14 7.34802ZM9.75736 7.05087C10.8826 5.67285 12.4087 4.89868 14 4.89868C15.5913 4.89868 17.1174 5.67285 18.2426 7.05087C19.3679 8.42889 20 10.2979 20 12.2467C20 14.1955 19.3679 16.0645 18.2426 17.4426C17.1174 18.8206 15.5913 19.5947 14 19.5947C12.4087 19.5947 10.8826 18.8206 9.75736 17.4426C8.63214 16.0645 8 14.1955 8 12.2467C8 10.2979 8.63214 8.42889 9.75736 7.05087Z" fill="black"/>
</svg>
