<svg width="26" height="26" viewBox="0 0 26 26" fill="none" xmlns="http://www.w3.org/2000/svg">
<path fill-rule="evenodd" clip-rule="evenodd" d="M5.11117 3.34966C6.43933 1.95108 8.63633 2.21216 9.73483 3.76566L11.0998 5.69833C11.9784 6.94091 11.9048 8.66666 10.8561 9.77166L10.5907 10.0501C10.5899 10.0522 10.5892 10.0544 10.5885 10.0566C10.5744 10.0956 10.5398 10.2212 10.5744 10.4596C10.647 10.9525 11.0273 11.9557 12.5743 13.5839C14.1256 15.2176 15.0659 15.6022 15.5025 15.6737C15.6077 15.6972 15.7171 15.6946 15.821 15.6661L16.263 15.2002C17.2098 14.2036 18.6853 14.0075 19.8759 14.6922L21.9451 15.8838C23.7142 16.9022 24.1258 19.3927 22.7121 20.8812L21.1737 22.5008C20.6938 23.0067 20.0384 23.439 19.2292 23.5192C17.2532 23.7142 12.6761 23.4596 7.878 18.4069C3.3995 13.6933 2.54908 9.59291 2.44183 7.58983C2.38875 6.59966 2.82967 5.75141 3.41033 5.13933L5.11117 3.34966ZM8.40775 4.70383C7.85308 3.9195 6.85533 3.87183 6.28875 4.46875L4.58792 6.25841C4.23042 6.63758 4.04083 7.07091 4.06467 7.50316C4.15133 9.139 4.85659 12.8678 9.05558 17.2878C13.4583 21.9245 17.5153 22.0545 19.0699 21.9017C19.3765 21.8714 19.6928 21.7002 19.9951 21.3817L21.5334 19.7622C22.1986 19.0623 22.0242 17.8035 21.1348 17.2922L19.0656 16.1005C18.5098 15.7809 17.8588 15.8795 17.4417 16.3193L16.9477 16.8393L16.3767 16.2966C16.9477 16.8382 16.9477 16.8393 16.9466 16.8404L16.9455 16.8415L16.9423 16.8458L16.9347 16.8523L16.9195 16.8675C16.874 16.9122 16.8247 16.9528 16.7722 16.9888C16.6855 17.0495 16.5707 17.1177 16.4244 17.1752C16.1254 17.2932 15.7311 17.3561 15.2425 17.277C14.2913 17.1232 13.0455 16.4396 11.3967 14.703C9.74133 12.961 9.10758 11.6621 8.96675 10.6947C8.89417 10.2028 8.95158 9.80958 9.05775 9.51166C9.11668 9.34564 9.20071 9.18963 9.30692 9.04908L9.33942 9.009L9.35458 8.99275L9.36108 8.98516L9.36433 8.98191L9.3665 8.98083C9.3665 8.98083 9.3665 8.97866 9.94392 9.52575L9.36758 8.97866L9.6785 8.6515C10.1606 8.14341 10.231 7.28325 9.77383 6.6365L8.40775 4.70383Z" fill="black"/>
<path d="M14.3645 2.03667C14.3993 1.82401 14.5171 1.63386 14.692 1.50793C14.8669 1.38201 15.0845 1.33061 15.2973 1.365C15.3244 1.37042 15.4132 1.38667 15.4598 1.3975C15.5519 1.417 15.6808 1.4495 15.8411 1.495C16.1629 1.58925 16.6124 1.74417 17.1519 1.99117C18.2309 2.48625 19.6664 3.35184 21.157 4.84142C22.6477 6.33209 23.5133 7.76859 24.0084 8.84759C24.2554 9.38709 24.4092 9.83559 24.5034 10.1584C24.5509 10.3206 24.5918 10.4847 24.6259 10.6503L24.6313 10.6838C24.6669 10.8984 24.6169 11.1183 24.4918 11.2963C24.3668 11.4742 24.1768 11.5959 23.9629 11.635C23.7507 11.6694 23.5336 11.6185 23.359 11.4932C23.1844 11.3679 23.0665 11.1786 23.0312 10.9666C23.009 10.8469 22.9797 10.7286 22.9434 10.6123C22.8327 10.2403 22.6952 9.87677 22.5318 9.52467C22.1093 8.60384 21.3488 7.332 20.0076 5.99084C18.6675 4.64967 17.3957 3.89025 16.4738 3.46775C16.122 3.30441 15.7589 3.16682 15.3872 3.05609C15.2732 3.02393 15.1583 2.99503 15.0427 2.96942C14.8299 2.93399 14.6395 2.81635 14.5127 2.64187C14.3858 2.46738 14.3326 2.25003 14.3645 2.03667Z" fill="black"/>
<path fill-rule="evenodd" clip-rule="evenodd" d="M14.6095 5.77417C14.6387 5.67151 14.6879 5.57561 14.7542 5.49196C14.8205 5.4083 14.9026 5.33852 14.9958 5.28661C15.0891 5.2347 15.1917 5.20167 15.2977 5.18941C15.4037 5.17715 15.5111 5.18591 15.6138 5.21517L15.3906 5.99626L15.6149 5.21626H15.617L15.6214 5.21734L15.6289 5.21951L15.6506 5.22709C15.736 5.25571 15.8203 5.28788 15.903 5.32351C16.0612 5.39067 16.2768 5.49467 16.5422 5.65176C17.073 5.96592 17.7956 6.48592 18.646 7.33742C19.4964 8.18784 20.0186 8.91151 20.3317 9.44126C20.4888 9.70667 20.5928 9.92226 20.661 10.0804C20.6967 10.1632 20.7289 10.2474 20.7574 10.3328L20.7639 10.3545L20.7661 10.3632L20.7672 10.3664V10.3686L19.9872 10.5928L20.7683 10.3697C20.8289 10.5765 20.8049 10.799 20.7014 10.9882C20.598 11.1773 20.4237 11.3176 20.2169 11.3783C20.01 11.4389 19.7875 11.4148 19.5984 11.3114C19.4092 11.208 19.2689 11.0337 19.2083 10.8268L19.205 10.816C19.1289 10.6273 19.0383 10.4448 18.9342 10.27C18.6915 9.86159 18.256 9.24409 17.4977 8.48576C16.7394 7.72742 16.1219 7.29192 15.7145 7.05034C15.5397 6.94624 15.3572 6.8557 15.1685 6.77951L15.1577 6.77517C14.9528 6.71387 14.7804 6.5743 14.6778 6.38671C14.5752 6.19912 14.5507 5.97973 14.6095 5.77417Z" fill="black"/>
</svg>
